<svg width="342" height="128" viewBox="0 0 342 128" fill="none" xmlns="http://www.w3.org/2000/svg">
<g filter="url(#filter0_d_360_4841)">
<path d="M18.4141 72.375L4.1875 9.14062C3.13281 4.45312 6.69531 0 11.5 0H29.5234C33.5781 0 37.4688 1.64062 40.3047 4.57031L94 60H118.375H124V65.625V71.25V108.75V114.375V120H118.375H66.7422C64.2344 120 61.7734 119.555 59.4297 118.664L13.4688 101.227C7.77344 99.0703 4 93.6094 4 87.5156C4 80.9062 8.40625 75.1406 14.7578 73.3828L18.3906 72.375H18.4141ZM54.625 82.5C51.5078 82.5 49 85.0078 49 88.125C49 91.2422 51.5078 93.75 54.625 93.75H88.375C91.4922 93.75 94 91.2422 94 88.125C94 85.0078 91.4922 82.5 88.375 82.5H54.625Z" fill="#004E89"/>
<path d="M124 60H326C332.627 60 338 65.3726 338 72V108C338 114.627 332.627 120 326 120H124V60Z" fill="#004E89"/>
<path d="M169.933 90.11C171.213 90.41 172.203 91.03 172.903 91.97C173.623 92.89 173.983 93.96 173.983 95.18C173.983 97.04 173.363 98.48 172.123 99.5C170.903 100.5 169.143 101 166.843 101H155.713V79.76H166.543C168.703 79.76 170.403 80.23 171.643 81.17C172.883 82.11 173.503 83.48 173.503 85.28C173.503 86.52 173.173 87.57 172.513 88.43C171.873 89.27 171.013 89.83 169.933 90.11ZM162.373 88.04H164.953C165.553 88.04 165.993 87.92 166.273 87.68C166.573 87.44 166.723 87.07 166.723 86.57C166.723 86.05 166.573 85.67 166.273 85.43C165.993 85.17 165.553 85.04 164.953 85.04H162.373V88.04ZM165.403 95.66C166.003 95.66 166.443 95.55 166.723 95.33C167.023 95.09 167.173 94.71 167.173 94.19C167.173 93.17 166.583 92.66 165.403 92.66H162.373V95.66H165.403ZM184.261 101.21C182.561 101.21 181.031 100.86 179.671 100.16C178.311 99.46 177.241 98.46 176.461 97.16C175.701 95.84 175.321 94.3 175.321 92.54C175.321 90.78 175.701 89.25 176.461 87.95C177.241 86.63 178.311 85.62 179.671 84.92C181.031 84.22 182.561 83.87 184.261 83.87C185.961 83.87 187.491 84.22 188.851 84.92C190.211 85.62 191.271 86.63 192.031 87.95C192.811 89.25 193.201 90.78 193.201 92.54C193.201 94.3 192.811 95.84 192.031 97.16C191.271 98.46 190.211 99.46 188.851 100.16C187.491 100.86 185.961 101.21 184.261 101.21ZM184.261 95.45C184.881 95.45 185.401 95.21 185.821 94.73C186.241 94.23 186.451 93.5 186.451 92.54C186.451 91.58 186.241 90.86 185.821 90.38C185.401 89.88 184.881 89.63 184.261 89.63C183.641 89.63 183.121 89.88 182.701 90.38C182.281 90.86 182.071 91.58 182.071 92.54C182.071 93.5 182.271 94.23 182.671 94.73C183.091 95.21 183.621 95.45 184.261 95.45ZM203.333 101.21C201.633 101.21 200.103 100.86 198.743 100.16C197.383 99.46 196.313 98.46 195.533 97.16C194.773 95.84 194.393 94.3 194.393 92.54C194.393 90.78 194.773 89.25 195.533 87.95C196.313 86.63 197.383 85.62 198.743 84.92C200.103 84.22 201.633 83.87 203.333 83.87C205.033 83.87 206.563 84.22 207.923 84.92C209.283 85.62 210.343 86.63 211.103 87.95C211.883 89.25 212.273 90.78 212.273 92.54C212.273 94.3 211.883 95.84 211.103 97.16C210.343 98.46 209.283 99.46 207.923 100.16C206.563 100.86 205.033 101.21 203.333 101.21ZM203.333 95.45C203.953 95.45 204.473 95.21 204.893 94.73C205.313 94.23 205.523 93.5 205.523 92.54C205.523 91.58 205.313 90.86 204.893 90.38C204.473 89.88 203.953 89.63 203.333 89.63C202.713 89.63 202.193 89.88 201.773 90.38C201.353 90.86 201.143 91.58 201.143 92.54C201.143 93.5 201.343 94.23 201.743 94.73C202.163 95.21 202.693 95.45 203.333 95.45ZM225.195 101L221.025 94.25V101H214.365V78.8H221.025V90.41L225.255 84.08H232.995L226.665 92.6L233.145 101H225.195ZM260.106 101H253.446L246.396 90.32V101H239.736V79.76H246.396L253.446 90.62V79.76H260.106V101ZM271.155 101.21C269.455 101.21 267.925 100.86 266.565 100.16C265.205 99.46 264.135 98.46 263.355 97.16C262.595 95.84 262.215 94.3 262.215 92.54C262.215 90.78 262.595 89.25 263.355 87.95C264.135 86.63 265.205 85.62 266.565 84.92C267.925 84.22 269.455 83.87 271.155 83.87C272.855 83.87 274.385 84.22 275.745 84.92C277.105 85.62 278.165 86.63 278.925 87.95C279.705 89.25 280.095 90.78 280.095 92.54C280.095 94.3 279.705 95.84 278.925 97.16C278.165 98.46 277.105 99.46 275.745 100.16C274.385 100.86 272.855 101.21 271.155 101.21ZM271.155 95.45C271.775 95.45 272.295 95.21 272.715 94.73C273.135 94.23 273.345 93.5 273.345 92.54C273.345 91.58 273.135 90.86 272.715 90.38C272.295 89.88 271.775 89.63 271.155 89.63C270.535 89.63 270.015 89.88 269.595 90.38C269.175 90.86 268.965 91.58 268.965 92.54C268.965 93.5 269.165 94.23 269.565 94.73C269.985 95.21 270.515 95.45 271.155 95.45ZM307.868 84.08L303.848 101H296.348L294.308 91.46L292.148 101H284.647L280.657 84.08H287.258L288.668 94.37L290.858 84.08H297.968L300.278 94.49L301.718 84.08H307.868Z" fill="white"/>
</g>
<defs>
<filter id="filter0_d_360_4841" x="0" y="0" width="342" height="128" filterUnits="userSpaceOnUse" color-interpolation-filters="sRGB">
<feFlood flood-opacity="0" result="BackgroundImageFix"/>
<feColorMatrix in="SourceAlpha" type="matrix" values="0 0 0 0 0 0 0 0 0 0 0 0 0 0 0 0 0 0 127 0" result="hardAlpha"/>
<feOffset dy="4"/>
<feGaussianBlur stdDeviation="2"/>
<feComposite in2="hardAlpha" operator="out"/>
<feColorMatrix type="matrix" values="0 0 0 0 0 0 0 0 0 0 0 0 0 0 0 0 0 0 0.25 0"/>
<feBlend mode="normal" in2="BackgroundImageFix" result="effect1_dropShadow_360_4841"/>
<feBlend mode="normal" in="SourceGraphic" in2="effect1_dropShadow_360_4841" result="shape"/>
</filter>
</defs>
</svg>
